<svg version="1.1" xmlns="http://www.w3.org/2000/svg" width="220" height="40" viewBox="0 0 220 40" style="enable-background:new 0 0 220 40"><g style="fill:#0072BC"><path d="M 7.146 25.32 L 2.019 25.461 V 21.916 L 7.151 21.932"/><path d="M 7.146 33.012 2.019 33.393 2.034 29.387 7.146 29.206"/><path d="M 34.065 11.176 L 34.09 6.716 L 2.019 3.891 V 9.045"/><path d="M 34.065 14.447 V 18.627 L 9.068 18.085 V 13.326"/><path d="M 34.073 21.962 V 25.02 L 9.077 25.384 L 9.068 21.916"/><path d="M 34.057 28.273 34.041 31.546 9.077 32.841 9.06 29.152"/></g><path d="M 34.073 38.671 25.001 39.557 24.998 35.845 34.09 35.15" style="fill:#43a455"/><g style="fill:#0072BC"><path d="M44.458,15.995v-4.694h4.172V7.598c0-4.642,2.66-7.042,7.823-7.042c0.938,0,1.826,0.105,2.712,0.365v4.694
		c-0.417-0.052-0.886-0.104-1.407-0.104c-3.078,0-3.495,1.147-3.495,3.964V11.3h4.539v4.694h-4.539v21.854H48.63V15.995H44.458z"/><path d="M59.478,24.548c0-8.449,5.11-13.978,12.465-13.978c7.354,0,12.464,5.476,12.464,13.978
		c0,8.45-5.111,14.03-12.464,14.03C64.588,38.578,59.478,33.05,59.478,24.548z M71.943,33.152c3.912,0,6.571-3.284,6.571-8.604
		c0-5.372-2.659-8.606-6.571-8.606c-3.911,0-6.571,3.338-6.571,8.606C65.372,29.868,68.033,33.152,71.943,33.152z"/><path d="M88.097,11.301h5.685v3.86c1.773-3.025,4.12-4.434,7.301-4.434c0.366,0,0.679,0,1.042,0.052v6.363
		c-0.365-0.052-0.729-0.052-1.094-0.052c-4.485,0-7.25,2.451-7.25,6.26v14.498h-5.685L88.097,11.301L88.097,11.301z"/><path d="M104.828,11.301h5.632v2.503c1.931-1.982,4.226-2.973,6.833-2.973c3.129,0,5.633,1.356,7.092,3.859
		c2.295-2.556,5.061-3.859,8.086-3.859c5.06,0,8.344,3.39,8.344,9.283v17.733h-5.633V21.159c0-3.442-1.408-5.216-4.119-5.216
		c-2.975,0-5.478,2.503-5.478,6.157v15.75h-5.478v-16.69c0-3.442-1.408-5.216-4.121-5.216c-2.973,0-5.526,2.503-5.526,6.157v15.75
		h-5.632V11.301L104.828,11.301z"/><path d="M148.119,30.075c2.449,2.452,4.482,3.233,7.563,3.233c3.232,0,5.215-1.461,5.215-3.391
		c0-2.451-2.086-2.605-6.625-3.286c-6.049-0.886-9.44-2.504-9.44-7.509c0-4.694,4.172-8.449,10.901-8.449
		c4.068,0,7.252,1.199,10.223,4.016l-3.391,3.651c-1.981-1.773-4.433-2.764-6.987-2.764c-3.234,0-5.007,1.147-5.007,2.868
		c0,2.608,3.285,2.347,8.709,3.39c5.007,0.938,7.46,3.338,7.46,7.563c0,5.216-4.331,9.074-11.007,9.074
		c-5.109,0-9.074-1.512-11.942-4.693L148.119,30.075z"/><path d="M170.77,1.026h5.686V7.39h-5.686V1.026z M170.77,11.301h5.686v26.547h-5.686V11.301z"/><path d="M191.98,33.102c0.521,0,1.043-0.052,1.461-0.104v4.851c-0.992,0.262-1.982,0.365-2.922,0.365
		c-6.885,0-7.666-2.921-7.666-8.71V15.995h-4.174v-4.694h4.174V2.069h5.686v9.232h4.902v4.694h-4.902v13.144
		C188.539,31.954,188.902,33.102,191.98,33.102z"/><path d="M206.977,38.525c-7.406,0-12.778-5.527-12.778-14.238c0-8.084,5.217-13.717,12.049-13.717
		c7.196,0,12.36,5.737,12.36,15.386v0.313h-18.309c0.419,4.226,3.287,6.78,7.043,6.78c2.504,0,4.954-1.409,6.414-3.911l4.694,2.658
		C215.529,36.23,211.67,38.525,206.977,38.525z M212.034,21.367c-0.313-3.338-2.765-5.686-5.687-5.686
		c-2.867,0-5.527,2.243-6.051,5.686H212.034z"/></g></svg>